<?xml version="1.0" encoding="UTF-8"?><svg xmlns="http://www.w3.org/2000/svg" viewBox="0 0 751.39 160.74"><defs><style>.d{fill:#2261a0;}.e{fill:#30c481;}.f{fill:#222c35;}.g{fill:#baa3a3;}.h{fill:#2b4f63;}</style></defs><g id="a"/><g id="b"><g id="c"><g><path class="h" d="M35.7,35.21c8,0,14.45,.88,19.35,2.62,4.9,1.75,8.48,4.78,10.73,9.08,2.25,4.3,3.38,10.35,3.38,18.15,0,5.6-.65,10.27-1.95,14.02-1.3,3.75-3.33,6.65-6.08,8.7-2.75,2.05-6.43,3.38-11.02,3.98v.75c1.7,.4,3.38,1.23,5.02,2.47,1.65,1.25,3.17,2.9,4.58,4.95,1.4,2.05,2.45,4.53,3.15,7.43l10.05,32.7h-14.1l-9.15-32.4c-1.3-3.9-3.05-6.67-5.25-8.33-2.2-1.65-5.05-2.48-8.55-2.48-6.1,0-11.4-.02-15.9-.07-4.5-.05-8.25-.12-11.25-.23-3-.1-5.4-.15-7.2-.15l.45-10.95H35.4c5.1-.1,9.12-.7,12.07-1.8,2.95-1.1,5.07-3.08,6.38-5.93,1.3-2.85,1.95-6.82,1.95-11.92s-.65-9.02-1.95-11.77c-1.3-2.75-3.43-4.67-6.38-5.77-2.95-1.1-6.98-1.65-12.07-1.65-8.2,0-15.28,.05-21.23,.15-5.95,.1-9.98,.15-12.08,.15L0,36.56c3.8-.4,7.35-.7,10.65-.9,3.3-.2,6.92-.32,10.88-.38,3.95-.05,8.67-.08,14.17-.08Zm-22.65,1.35v103.5H0V36.56H13.05Z"/><path class="h" d="M97.75,36.26h15.07c5.05,0,10.05,.07,15,.23,4.95,.15,9.72,.38,14.33,.67l-.6,10.35h-41.55c-3.1,0-5.38,.78-6.83,2.32-1.45,1.55-2.17,4.08-2.17,7.58v61.5c0,3.5,.72,6.05,2.17,7.65,1.45,1.6,3.72,2.4,6.83,2.4h41.55l.6,10.2c-4.6,.3-9.38,.5-14.33,.6-4.95,.1-9.95,.17-15,.23-5.05,.05-10.08,.07-15.07,.07-6.1,0-10.93-1.62-14.48-4.88-3.55-3.25-5.38-7.62-5.48-13.12V54.26c.1-5.6,1.92-10,5.48-13.2,3.55-3.2,8.37-4.8,14.48-4.8Zm-17.25,43.65h55.2v10.65h-55.2v-10.65Z"/><path class="h" d="M182.3,34.15c8.5,0,15.25,.78,20.25,2.33,5,1.55,8.62,4.27,10.88,8.17,2.25,3.9,3.38,9.4,3.38,16.5s-1.38,13.05-4.12,16.95c-2.75,3.9-7.23,6.15-13.42,6.75v.6c7.7,.7,13.07,3.4,16.12,8.1,3.05,4.7,4.57,11.2,4.57,19.5,0,7.1-1.1,12.6-3.3,16.5-2.2,3.9-5.73,6.62-10.58,8.17-4.85,1.55-11.23,2.33-19.12,2.33-5.9,0-10.98-.03-15.22-.08-4.25-.05-8.18-.18-11.78-.38-3.6-.2-7.35-.45-11.25-.75l2.1-10.5c2.2,.1,6.38,.2,12.52,.3,6.15,.1,13.32,.15,21.53,.15,5.5,0,9.82-.47,12.97-1.43,3.15-.95,5.4-2.72,6.75-5.32,1.35-2.6,2.03-6.35,2.03-11.25,0-5.4-.7-9.55-2.1-12.45-1.4-2.9-3.75-4.95-7.05-6.15-3.3-1.2-7.8-1.85-13.5-1.95h-33.3v-10.05h33.15c5-.1,8.97-.62,11.93-1.58,2.95-.95,5.07-2.7,6.38-5.25,1.3-2.55,1.95-6.12,1.95-10.73s-.7-8.3-2.1-10.8c-1.4-2.5-3.73-4.2-6.97-5.1-3.25-.9-7.68-1.35-13.28-1.35h-13.2c-3.9,0-7.33,.03-10.27,.08-2.95,.05-5.43,.18-7.43,.38l-2.1-10.5c3.5-.4,6.83-.67,9.98-.83,3.15-.15,6.6-.25,10.35-.3,3.75-.05,8.17-.08,13.27-.08Zm-20.7,1.2v103.5h-12.9V35.35h12.9Z"/><path class="h" d="M502.5,36.56v11.7h-79.95v-11.7h79.95Zm-33.45,0v103.5h-13.2V36.56h13.2Z"/><path class="h" d="M527.2,36.26h15.08c5.05,0,10.05,.07,15,.23,4.95,.15,9.72,.38,14.33,.67l-.6,10.35h-41.55c-3.1,0-5.38,.78-6.82,2.32-1.45,1.55-2.18,4.08-2.18,7.58v61.5c0,3.5,.72,6.05,2.18,7.65,1.45,1.6,3.72,2.4,6.82,2.4h41.55l.6,10.2c-4.6,.3-9.38,.5-14.33,.6-4.95,.1-9.95,.17-15,.23-5.05,.05-10.08,.07-15.08,.07-6.1,0-10.93-1.62-14.47-4.88-3.55-3.25-5.38-7.62-5.47-13.12V54.26c.1-5.6,1.92-10,5.47-13.2,3.55-3.2,8.37-4.8,14.47-4.8Zm-17.25,43.65h55.2v10.65h-55.2v-10.65Z"/><path class="h" d="M615.85,35.21c8,0,14.45,.88,19.35,2.62,4.9,1.75,8.47,4.78,10.72,9.08,2.25,4.3,3.38,10.35,3.38,18.15,0,5.6-.65,10.27-1.95,14.02-1.3,3.75-3.33,6.65-6.08,8.7-2.75,2.05-6.43,3.38-11.02,3.98v.75c1.7,.4,3.38,1.23,5.02,2.47,1.65,1.25,3.17,2.9,4.58,4.95,1.4,2.05,2.45,4.53,3.15,7.43l10.05,32.7h-14.1l-9.15-32.4c-1.3-3.9-3.05-6.67-5.25-8.33-2.2-1.65-5.05-2.48-8.55-2.48-6.1,0-11.4-.02-15.9-.07-4.5-.05-8.25-.12-11.25-.23-3-.1-5.4-.15-7.2-.15l.45-10.95h33.45c5.1-.1,9.12-.7,12.08-1.8,2.95-1.1,5.07-3.08,6.38-5.93,1.3-2.85,1.95-6.82,1.95-11.92s-.65-9.02-1.95-11.77c-1.3-2.75-3.43-4.67-6.38-5.77-2.95-1.1-6.98-1.65-12.08-1.65-8.2,0-15.28,.05-21.22,.15-5.95,.1-9.97,.15-12.08,.15l-2.1-10.35c3.8-.4,7.35-.7,10.65-.9,3.3-.2,6.92-.32,10.88-.38,3.95-.05,8.67-.08,14.18-.08Zm-22.65,1.35v103.5h-13.05V36.56h13.05Z"/><g><path class="e" d="M339.46,69.57c0-1.13-.05-2.26-.12-3.37l15.66-12.41-3.71-11.43-19.96-.84c-1.21-1.91-2.53-3.74-3.97-5.47l5.37-19.24-9.72-7.06-16.64,11.06c-2.08-.83-4.23-1.54-6.43-2.1l-6.96-18.71h-12.02l-6.96,18.71c-2.2,.56-4.35,1.27-6.43,2.1l-16.64-11.06-9.72,7.06,5.37,19.24c-1.44,1.73-2.76,3.56-3.96,5.46l-19.97,.84-3.71,11.43,15.66,12.41c-.07,1.12-.12,2.24-.12,3.37s.05,2.26,.12,3.37l-15.66,12.41,3.71,11.43,19.96,.84c1.21,1.91,2.53,3.74,3.97,5.47l-5.37,19.24,9.72,7.06,16.63-11.05c2.09,.83,4.23,1.54,6.44,2.1l6.96,18.71h12.02l6.96-18.71c2.21-.56,4.35-1.27,6.44-2.1l16.63,11.05,9.72-7.06-5.37-19.24c1.44-1.73,2.76-3.56,3.97-5.47l19.96-.84,3.71-11.43-15.66-12.41c.07-1.12,.12-2.24,.12-3.38Zm-52.49,29.17c-16.1,0-29.16-13.06-29.16-29.17s13.05-29.16,29.16-29.16,29.17,13.05,29.17,29.16-13.05,29.17-29.17,29.17Z"/><path class="d" d="M426.42,119.26h0l17.53-5.97v-9.27l-17.08-5.81c-.68-2.51-1.62-4.91-2.78-7.17h0l8.17-16.61-6.56-6.56-16.18,7.96c-2.22-1.26-4.57-2.31-7.04-3.1h0l-5.96-17.52h-9.27l-5.81,17.08c-2.51,.68-4.91,1.62-7.17,2.78h0l-16.6-8.17-6.56,6.56,7.96,16.18h0c-1.26,2.22-2.31,4.57-3.1,7.04h0l-17.52,5.96v9.27l17.08,5.81c.68,2.51,1.62,4.9,2.79,7.16l-8.18,16.61,6.56,6.56,16.19-7.97c2.21,1.26,4.56,2.3,7.03,3.09h0l5.97,17.53h9.27l5.81-17.08h0c2.5-.68,4.9-1.62,7.16-2.78l16.61,8.18,6.56-6.56-7.96-16.18h0c1.26-2.22,2.31-4.57,3.09-7.04Zm-54.49-11.28c0-10.64,8.62-19.26,19.26-19.26s19.27,8.62,19.27,19.26-8.62,19.27-19.27,19.27-19.26-8.63-19.26-19.27Z"/></g><g><path class="h" d="M699.65,34.76c4.9,.1,9.95,.35,15.15,.75,5.2,.4,10.4,1.15,15.6,2.25l-.9,9.6c-4.3-.2-9.05-.38-14.25-.52-5.2-.15-10.2-.23-15-.23-3.7,0-6.88,.13-9.53,.38-2.65,.25-4.83,.85-6.52,1.8-1.7,.95-2.93,2.5-3.68,4.65-.75,2.15-1.12,5.13-1.12,8.92,0,5.7,1.02,9.68,3.08,11.93,2.05,2.25,5.37,3.93,9.98,5.02l21,5.25c8,1.9,13.47,5.23,16.42,9.98,2.95,4.75,4.42,11.13,4.42,19.12,0,6-.67,10.85-2.03,14.55-1.35,3.7-3.43,6.53-6.22,8.47-2.8,1.95-6.4,3.3-10.8,4.05-4.4,.75-9.6,1.12-15.6,1.12-3.4,0-7.83-.15-13.27-.45-5.45-.3-11.73-1.1-18.83-2.4l.9-9.75c5.9,.2,10.65,.38,14.25,.52,3.6,.15,6.7,.23,9.3,.23h8.1c5.3,0,9.47-.4,12.53-1.2,3.05-.8,5.2-2.4,6.45-4.8,1.25-2.4,1.88-5.95,1.88-10.65,0-4-.45-7.1-1.35-9.3-.9-2.2-2.33-3.87-4.27-5.02-1.95-1.15-4.43-2.07-7.43-2.77l-21.45-5.4c-7.5-1.9-12.78-5.2-15.83-9.9-3.05-4.7-4.58-11-4.58-18.9,0-6,.67-10.82,2.03-14.48,1.35-3.65,3.4-6.4,6.15-8.25,2.75-1.85,6.23-3.07,10.42-3.67,4.2-.6,9.2-.9,15-.9Z"/><g><g><rect class="g" x="738.65" y="24.89" width="5.45" height="19.55" transform="translate(855.37 -698.71) rotate(96.16)"/><rect class="g" x="736.55" y="44.33" width="5.45" height="19.55" transform="translate(872.38 -675.1) rotate(96.16)"/></g><path class="f" d="M730.72,23.75l-13.96-1.51c-9.85-1.06-18.77,6.75-19.93,17.45h0c-1.15,10.7,5.89,20.24,15.74,21.3l13.96,1.51c1.19,.13,2.26-.81,2.4-2.1l3.68-34.09c.14-1.29-.71-2.44-1.9-2.56Z"/></g><path class="f" d="M669.58,150.37c8.49,.51,15.83-6.6,16.39-15.88h0c.56-9.29-5.86-17.23-14.35-17.75l-10.58-.64c-.82-.05-1.52,.6-1.57,1.45l-1.85,30.56c-.05,.85,.57,1.57,1.39,1.62l10.58,.64Z"/></g></g></g></g></svg>